<svg width="131" height="37" viewBox="0 0 131 37" fill="none" xmlns="http://www.w3.org/2000/svg">
<path d="M2.19871 19.471C3.29013 17.7548 4.62713 16.4305 6.20969 15.5926C4.57256 14.4642 3.28331 11.9575 3.28331 9.80205C3.28331 7.24798 4.17691 5.09257 6.01187 3.32229C7.84682 1.50471 10.0774 0.619568 12.6491 0.619568C15.2753 0.619568 17.5059 1.50471 19.3409 3.26823C21.1758 5.03851 22.0694 7.19393 22.0694 9.79529C22.0694 11.9575 20.9302 14.2615 19.1976 15.5859C22.3696 17.4034 24.798 21.1805 24.798 24.9643C24.798 28.2549 23.6111 31.0995 21.2304 33.4103C18.8497 35.7143 15.9779 36.8968 12.6559 36.8968C9.33388 36.8968 6.46208 35.7211 4.12917 33.4103C1.80307 31.0995 0.61615 28.2549 0.61615 24.9643C0.61615 23.0521 1.16186 21.1872 2.19871 19.471ZM18.6042 25.1129C18.6042 21.6264 16.0257 19.1264 12.6559 19.1264C9.33388 19.1264 6.7554 21.6332 6.7554 25.1129C6.7554 28.5927 9.33388 31.0995 12.6559 31.0995C16.0257 31.0995 18.6042 28.5994 18.6042 25.1129ZM12.6559 6.41014C10.6231 6.41014 8.93824 7.97772 8.93824 10.1872C8.93824 12.3494 10.6231 14.0183 12.6559 14.0183C14.6887 14.0183 16.4213 12.3494 16.4213 10.1872C16.4213 7.98447 14.791 6.41014 12.6559 6.41014Z" fill="#D7E1F2"/>
<path d="M33.1268 31.5927C29.5115 28.0589 27.7243 23.7886 27.7243 18.7345C27.7243 13.7277 29.5115 9.45745 33.1268 5.92365C36.7422 2.38985 41.0533 0.619568 46.1557 0.619568C51.2581 0.619568 55.6238 2.38985 59.1913 5.92365C62.8067 9.41016 64.5939 13.6804 64.5939 18.7345C64.5939 23.7886 62.8067 28.0589 59.1913 31.5927C55.6238 35.1265 51.2649 36.8968 46.1557 36.8968C41.0465 36.8968 36.7422 35.1265 33.1268 31.5927ZM54.8325 27.5657C57.2131 25.1602 58.4001 22.2143 58.4001 18.7278C58.4001 15.2413 57.2131 12.2953 54.8325 9.94394C52.4518 7.59258 49.58 6.41014 46.1625 6.41014C42.7927 6.41014 39.9209 7.58582 37.4925 9.99124C35.1119 12.3494 33.9249 15.2413 33.9249 18.7278C33.9249 22.2143 35.1119 25.1062 37.4925 27.5116C39.9209 29.917 42.7927 31.0927 46.1625 31.0927C49.58 31.0995 52.4518 29.9238 54.8325 27.5657Z" fill="#D7E1F2"/>
<path d="M67.6635 36.1603V29.7819L81.2926 16.8696C83.2231 15.0521 84.1645 13.1872 84.1645 11.3696C84.1645 8.61961 82.0362 6.41014 79.0075 6.41014C75.9856 6.41014 73.9528 8.61961 73.9528 11.7142H67.8067C67.8067 8.52501 68.8504 5.92365 70.9309 3.80877C73.066 1.70065 75.8423 0.619568 79.3076 0.619568C82.6296 0.619568 85.3036 1.65336 87.3364 3.71418C89.3692 5.775 90.406 8.28177 90.406 11.221C90.406 14.998 88.8235 18.2886 85.6515 21.1872L76.0879 30.167V30.363H90.3583V36.1603H67.6635Z" fill="#D7E1F2"/>
<path d="M99.5262 31.5927C95.9109 28.0589 94.1237 23.7886 94.1237 18.7345C94.1237 13.7277 95.9109 9.45745 99.5262 5.92365C103.142 2.38985 107.453 0.619568 112.562 0.619568C117.664 0.619568 122.03 2.38985 125.597 5.92365C129.213 9.41016 131 13.6804 131 18.7345C131 23.7886 129.213 28.0589 125.597 31.5927C122.03 35.1265 117.671 36.8968 112.562 36.8968C107.459 36.8968 103.148 35.1265 99.5262 31.5927ZM121.232 27.5657C123.612 25.1602 124.799 22.2143 124.799 18.7278C124.799 15.2413 123.612 12.2953 121.232 9.94394C118.851 7.59258 115.979 6.41014 112.562 6.41014C109.192 6.41014 106.32 7.58582 103.892 9.99124C101.511 12.3494 100.324 15.2413 100.324 18.7278C100.324 22.2143 101.511 25.1062 103.892 27.5116C106.32 29.917 109.192 31.0927 112.562 31.0927C115.979 31.0995 118.851 29.9238 121.232 27.5657Z" fill="#D7E1F2"/>
</svg>
