<svg width="506" height="526" viewBox="0 0 506 526" fill="none" xmlns="http://www.w3.org/2000/svg">
<path d="M408.537 40.9475C416.051 40.9475 422.143 34.8602 422.143 27.3512C422.143 19.8421 416.051 13.7547 408.537 13.7547C401.022 13.7547 394.931 19.8421 394.931 27.3512C394.931 34.8602 401.022 40.9475 408.537 40.9475Z" fill="#D7E1F2"/>
<path d="M41.2191 186.808C48.7336 186.808 54.8254 180.721 54.8254 173.212C54.8254 165.703 48.7336 159.616 41.2191 159.616C33.7046 159.616 27.6127 165.703 27.6127 173.212C27.6127 180.721 33.7046 186.808 41.2191 186.808Z" fill="#D7E1F2"/>
<path d="M478.119 136.372C478.019 136.372 477.969 136.372 477.869 136.372C474.417 135.972 471.166 121.476 463.962 85.9856C456.959 51.2449 447.305 3.65763 438.651 2.35797C430.347 1.1083 413.889 17.354 399.333 31.7001C387.327 43.547 376.972 53.7943 371.77 53.7943C371.62 53.7943 371.42 53.7942 371.27 53.7442C365.667 52.9944 364.267 44.1968 362.866 35.6991C361.515 27.3513 360.115 18.6536 354.962 19.1035C343.807 19.9533 329.301 55.1439 312.543 95.883C310.292 101.332 307.991 106.98 305.59 112.679L304.189 112.079C306.54 106.43 308.891 100.782 311.142 95.3333C328.8 52.4447 342.757 18.5536 354.862 17.6538C361.365 17.154 362.916 26.5015 364.367 35.5491C365.667 43.497 367.018 51.7448 371.47 52.3447C375.772 52.9445 387.177 41.6475 398.282 30.7004C413.789 15.4045 429.847 -0.441358 438.901 0.908283C447.905 2.25792 455.909 38.4983 465.463 85.7357C468.114 98.8822 470.615 111.329 472.866 120.377C476.118 133.623 477.669 134.873 478.069 134.923C478.619 134.973 480.07 134.323 481.921 126.725C483.271 121.276 484.422 113.978 485.672 106.23C489.124 84.586 491.775 70.3399 497.228 70.3399C497.278 70.3399 497.328 70.3399 497.378 70.3399C500.029 70.4899 502.33 74.0389 504.281 81.187C505.781 86.5856 507.132 94.1335 508.283 103.531C510.234 119.477 511.034 135.573 511.034 135.772L509.533 135.823C509.533 135.673 508.783 119.627 506.782 103.731C505.631 94.2335 502.33 72.0894 497.278 71.8395C497.228 71.8395 497.228 71.8395 497.178 71.8395C492.625 71.8395 489.574 91.0344 487.123 106.43C484.172 124.875 482.121 136.372 478.119 136.372Z" fill="#2767AE"/>
<path d="M204.544 242.644C177.581 242.644 162.024 220.3 146.867 198.555C132.861 178.511 119.655 159.516 98.1949 156.666C86.9897 155.167 75.9847 157.016 65.58 162.215C57.2261 166.364 49.1725 172.662 41.7191 180.91C28.9632 194.956 22.16 210.052 22.11 210.202L20.7594 209.602C20.8094 209.453 27.7125 194.157 40.6185 179.91C57.7763 160.965 77.7855 152.417 98.3949 155.167C120.505 158.116 134.511 178.211 148.068 197.706C156.772 210.202 165.776 223.099 176.881 231.497C189.237 240.844 202.943 243.344 218.75 239.195C229.405 236.396 240.41 227.848 251.415 213.851C260.769 201.904 270.324 185.959 280.578 165.064L281.929 165.714C259.419 211.502 239.46 235.296 219.1 240.644C213.898 241.994 209.096 242.644 204.544 242.644Z" fill="#2767AE"/>
<path d="M319.746 290.331C307.691 329.071 247.663 355.714 208.295 342.167C201.342 339.768 194.989 336.119 189.687 331.02C186.885 328.321 184.334 325.222 182.183 321.723C173.429 307.526 185.935 290.181 193.088 264.488C200.942 236.445 186.385 213.151 206.495 199.905C210.446 197.306 214.548 195.306 218.75 193.906C231.356 189.608 244.912 190.357 257.868 194.706C297.186 207.753 331.252 253.441 319.746 290.331Z" fill="#D7E1F2"/>
<path d="M212.847 336.119L211.897 335.819C211.947 335.669 216.199 321.323 219.65 306.827C225.853 280.734 224.152 276.985 223.102 276.535C218.3 274.585 191.538 292.081 181.633 298.979L181.083 298.179C184.785 295.63 217.349 273.136 223.502 275.635C225.303 276.385 227.004 280.434 220.651 307.077C217.149 321.573 212.897 335.969 212.847 336.119Z" fill="white"/>
<path d="M220.85 256.19C218.449 256.19 216.498 255.441 214.998 253.991C202.192 241.494 220.2 194.857 221 192.908L221.951 193.257C221.751 193.757 203.392 241.244 215.748 253.291C217.149 254.641 219 255.291 221.251 255.241C237.458 254.691 269.873 218.751 270.223 218.401L271.024 219C270.874 219.2 258.418 238.245 260.019 247.743C260.119 248.392 260.519 248.892 261.119 249.242C263.32 250.392 269.673 250.192 287.481 243.094C298.186 238.795 308.041 233.896 308.141 233.846L308.591 234.746C306.991 235.546 268.873 254.341 260.669 250.142C259.719 249.642 259.168 248.942 259.018 247.943C257.818 240.794 263.87 229.048 267.522 222.749C264.171 226.248 258.668 231.847 252.465 237.395C238.759 249.642 228.254 255.99 221.251 256.24C221.101 256.19 221 256.19 220.85 256.19Z" fill="white"/>
<path d="M250.615 289.781C255.615 289.781 259.669 284.231 259.669 277.385C259.669 270.538 255.615 264.988 250.615 264.988C245.614 264.988 241.56 270.538 241.56 277.385C241.56 284.231 245.614 289.781 250.615 289.781Z" fill="white"/>
<path d="M27.1624 313.975C42.1638 313.975 54.3249 301.822 54.3249 286.832C54.3249 271.841 42.1638 259.689 27.1624 259.689C12.1611 259.689 0 271.841 0 286.832C0 301.822 12.1611 313.975 27.1624 313.975Z" fill="#F5DB12"/>
<path d="M208.845 143.72L144.966 119.926L124.857 112.428L76.1848 94.3331L177.331 17.6033L191.437 6.95607L193.338 21.8021L208.845 143.72Z" fill="#F5DB12"/>
<path d="M124.757 370.71L98.4451 484.279L217.5 456.486L124.757 370.71Z" fill="#F5DB12"/>
<path d="M247.963 517.472C221.701 517.472 164.575 447.39 162.124 444.391L163.275 443.441C163.425 443.641 178.431 462.086 196.39 480.131C212.897 496.727 235.307 516.422 248.413 515.922C249.514 515.872 250.314 515.522 250.815 514.822C252.615 512.273 250.614 505.625 248.814 499.726C247.163 494.278 245.812 489.929 246.963 487.929C247.263 487.379 247.763 487.03 248.363 486.88C250.614 486.33 253.666 488.879 257.868 492.378C265.721 498.976 277.627 508.924 290.933 502.325C303.439 496.127 305.239 476.332 307.34 453.438C310.442 419.597 314.294 377.508 354.212 358.613C397.982 337.919 425.644 354.764 450.106 369.66C463.062 377.558 475.317 385.006 488.523 385.856C507.882 387.106 538.996 364.712 569.06 343.117C598.173 322.223 625.636 302.428 641.293 304.827C643.944 305.227 645.895 306.527 646.996 308.626C652.398 318.974 637.441 348.966 621.584 380.657C604.076 415.748 584.217 455.488 593.571 467.785C599.974 476.182 611.88 471.034 622.434 466.535C629.788 463.386 636.091 460.636 640.343 462.186C646.295 464.385 644.394 470.484 642.694 475.833C640.993 481.281 640.193 484.68 643.444 485.73C650.397 487.929 697.119 462.436 714.527 452.389L715.277 453.688C715.127 453.788 699.32 462.836 682.662 471.434C648.746 488.979 644.394 487.579 642.944 487.13C638.042 485.58 639.742 480.131 641.193 475.383C643.094 469.284 644.044 465.135 639.742 463.586C636.041 462.236 629.688 464.985 622.935 467.885C611.88 472.633 599.374 478.032 592.271 468.684C582.366 455.638 601.575 417.198 620.133 380.008C635.79 348.666 650.597 319.023 645.545 309.326C644.645 307.626 643.144 306.627 640.943 306.277C625.936 304.027 598.674 323.572 569.81 344.317C540.347 365.511 509.883 387.406 489.924 387.406C489.374 387.406 488.823 387.406 488.273 387.356C474.667 386.506 462.311 378.958 449.205 370.96C425.094 356.264 397.782 339.668 354.762 360.013C315.594 378.558 311.792 420.147 308.741 453.638C306.59 477.032 304.739 497.177 291.533 503.725C288.182 505.375 284.93 506.075 281.829 506.075C271.724 506.075 263.07 498.827 256.817 493.578C253.266 490.579 250.164 488.029 248.613 488.379C248.413 488.429 248.263 488.529 248.163 488.729C247.313 490.179 248.764 494.827 250.114 499.376C252.115 505.875 254.166 512.623 251.915 515.772C251.165 516.872 249.964 517.422 248.363 517.472C248.313 517.472 248.163 517.472 247.963 517.472Z" fill="#2767AE"/>
<path d="M368.919 92.3838C368.919 92.3838 348.559 101.031 343.907 115.528C339.255 130.024 354.562 145.669 354.562 145.669L403.284 135.472L368.919 92.3838Z" fill="#26242B"/>
<path d="M415.79 226.098C433.448 198.705 425.545 162.215 398.132 144.57C370.72 126.925 334.203 134.822 316.545 162.215L415.79 226.098Z" fill="#D56B38"/>
<path d="M391.179 152.318L401.183 115.328C401.183 115.328 414.49 111.929 414.289 102.881C414.089 93.8335 404.485 95.683 404.485 95.683C404.485 95.683 402.984 83.0363 390.528 79.2374C378.073 75.4384 367.868 88.435 366.517 98.6822C364.516 113.828 369.219 122.426 384.826 122.426L378.323 142.521" fill="#F5DB12"/>
<path d="M374.696 99.9658L370.714 106.084L371.972 106.902L375.954 100.784L374.696 99.9658Z" fill="#26242B"/>
<path d="M393.98 142.121C381.324 134.973 399.132 92.4837 399.132 92.4837C383.776 97.2824 369.419 90.2843 369.419 90.2843C369.419 90.2843 378.123 69.9896 400.533 77.8375C422.943 85.6855 424.594 101.531 424.594 101.531C424.594 101.531 447.804 113.078 443.553 133.023C439.351 152.918 415.09 161.166 415.09 161.166C415.09 161.166 403.985 147.819 393.98 142.121Z" fill="#26242B"/>
<path d="M182.983 63.8194C185.191 58.6978 183.896 53.2176 180.09 51.579C176.285 49.9403 171.409 52.7638 169.201 57.8854C166.993 63.007 168.288 68.4873 172.094 70.1259C175.899 71.7645 180.775 68.941 182.983 63.8194Z" fill="#D56B38"/>
<path d="M497.377 525.718L355.012 468.983L353.261 430.343L495.676 487.078L497.377 525.718Z" fill="#F5DB12"/>
<path d="M374.214 379.938L354.227 430.039L495.205 486.198L515.192 436.097L374.214 379.938Z" fill="white"/>
<path d="M374.671 380.808L514.285 436.392L494.826 485.129L355.212 429.544L374.671 380.808ZM373.821 378.858L353.261 430.344L495.677 487.079L516.236 435.593L373.821 378.858Z" fill="#26242B"/>
<path d="M60.6715 242.581L8.15936 366.442L60.7152 388.691L113.227 264.83L60.6715 242.581Z" fill="white"/>
<path d="M61.0278 243.644L112.201 265.338L60.2775 387.805L9.10401 366.111L61.0278 243.644ZM60.2275 241.645L7.10309 366.911L61.0779 389.755L114.202 264.488L60.2275 241.645Z" fill="#26242B"/>
<path d="M114.242 264.459C116.537 259.044 106.313 249.539 91.4064 243.228C76.4994 236.917 62.554 236.19 60.2584 241.605C57.9629 247.019 68.1865 256.525 83.0935 262.836C98.0006 269.147 111.946 269.874 114.242 264.459Z" fill="#2767AE"/>
<path d="M61.1283 389.666C63.4239 384.251 53.2001 374.746 38.2929 368.435C23.3857 362.124 9.44019 361.398 7.14463 366.812C4.84907 372.227 15.0728 381.732 29.98 388.043C44.8872 394.354 58.8327 395.08 61.1283 389.666Z" fill="#D7E1F2"/>
<path d="M495.377 239.844C492.575 239.844 489.624 239.644 486.623 239.294C473.967 237.694 462.912 233.146 456.309 226.797C446.204 217.1 442.603 197.756 439.951 183.66C438.901 178.061 438.001 173.212 436.95 170.763C433.498 162.665 426.595 161.916 426.545 161.916L426.695 160.416C426.795 160.416 428.746 160.616 431.147 161.916C433.348 163.115 436.4 165.515 438.401 170.163C439.501 172.813 440.402 177.461 441.502 183.36C444.103 197.256 447.655 216.3 457.409 225.698C463.662 231.746 474.667 236.245 486.873 237.794C498.178 239.244 508.483 237.794 513.035 234.145C516.936 230.996 519.537 227.797 521.839 224.898C525.59 220.249 528.542 216.55 534.894 216.2C541.648 215.8 545.799 218.5 547.4 221.199C548.15 222.449 548.351 223.698 547.9 224.448C547.3 225.398 545.499 225.698 542.398 226.198C540.347 226.497 536.895 227.047 536.545 227.847L535.145 227.247C535.795 225.698 538.896 225.198 542.148 224.698C543.799 224.448 546.25 224.048 546.6 223.648C546.65 223.548 546.7 222.898 546.1 221.949C544.699 219.649 541.047 217.3 534.995 217.65C529.292 218 526.641 221.249 522.989 225.798C520.638 228.697 517.987 231.996 513.935 235.245C510.183 238.244 503.48 239.844 495.377 239.844Z" fill="#26242B"/>
<path d="M478.019 284.283C471.716 284.283 465.563 283.533 459.66 281.983C441.902 277.384 429.447 266.487 422.093 258.14C414.19 249.142 410.388 241.094 410.338 240.994L411.688 240.344C411.838 240.644 426.745 271.836 460.011 280.534C486.623 287.432 517.487 278.434 551.652 253.741L552.553 254.94C525.54 274.435 500.579 284.283 478.019 284.283Z" fill="#26242B"/>
<path d="M310.592 163.815C308.241 163.365 252.615 152.918 240.11 147.019C227.354 141.021 211.396 88.9347 210.696 86.7353L212.147 86.2854C212.297 86.8353 228.604 139.921 240.76 145.62C253.116 151.418 310.342 162.215 310.892 162.315L310.592 163.815Z" fill="#26242B"/>
<path d="M334.453 128.274C320.697 122.625 306.24 121.375 293.534 120.326C285.48 119.626 278.527 119.076 272.825 117.476C266.522 115.727 258.368 107.229 248.564 92.2335C241.31 81.1366 235.808 70.4397 235.758 70.3397L237.108 69.6398C237.308 70.0397 258.918 112.078 273.225 116.027C278.827 117.576 285.681 118.176 293.684 118.826C306.54 119.926 321.047 121.176 335.053 126.924L334.453 128.274Z" fill="#26242B"/>
<path d="M201.342 67.2405C201.292 67.2405 194.989 66.7907 188.636 65.9409C175.38 64.1914 174.98 62.5918 174.83 61.842C174.73 61.4921 174.83 61.1422 175.03 60.8422C175.48 60.2424 176.531 58.7927 193.388 56.7932C201.592 55.8434 209.595 55.1936 209.695 55.1936L209.796 56.6933C194.589 57.893 178.232 60.0424 176.381 61.592C177.631 62.9417 188.636 64.7912 201.442 65.691L201.342 67.2405Z" fill="#26242B"/>
<path d="M230.055 69.34C226.254 69.34 222.502 66.7906 222.302 66.6907L223.152 65.441C223.202 65.491 227.654 68.4401 231.256 67.7403C232.607 67.4904 233.607 66.7406 234.407 65.541C235.108 64.4413 235.158 63.2916 234.457 62.092C232.256 58.1431 223.503 54.6439 218.15 54.7439C215.949 54.7439 213.898 55.8437 212.148 57.9431C209.647 60.9423 208.446 65.1911 208.696 66.4407C209.396 66.6907 212.598 65.241 215.549 63.2916L216.349 64.5412C210.497 68.3902 208.496 67.9903 208.046 67.7903C207.596 67.5904 207.295 67.1905 207.195 66.6907C206.895 64.9412 208.246 60.2924 210.997 56.9933C213.048 54.544 215.499 53.2943 218.15 53.2443C218.2 53.2443 218.25 53.2443 218.3 53.2443C224.203 53.2443 233.357 56.9433 235.808 61.3921C236.758 63.0916 236.708 64.7912 235.708 66.3408C234.707 67.8904 233.307 68.89 231.606 69.2399C231.056 69.2899 230.556 69.34 230.055 69.34Z" fill="#26242B"/>
<path d="M209.495 76.0375C207.044 76.0375 203.543 75.6876 198.691 74.8879C191.888 73.7382 191.888 65.6909 191.888 65.6409H193.388C193.388 65.6409 193.388 67.4403 194.089 69.2897C194.989 71.639 196.64 73.0385 198.941 73.4384C212.497 75.6876 213.947 73.9382 214.097 73.3384C214.247 72.5887 212.347 71.9888 210.696 71.489C208.295 70.7392 205.544 69.8895 204.993 67.6903L206.444 67.2904C206.794 68.6399 209.095 69.3896 211.146 69.9894C213.547 70.7392 215.998 71.489 215.548 73.5884C215.298 74.838 214.197 76.0375 209.495 76.0375Z" fill="#26242B"/>
<path d="M213.848 81.7365C212.398 81.7365 208.696 80.6369 198.441 74.7885L199.191 73.4888C205.244 76.8879 212.448 80.387 213.798 80.287C213.898 80.137 213.898 80.037 213.898 79.8871C213.698 78.7374 211.097 76.8879 209.346 75.9881L210.047 74.6386C210.847 75.0884 214.999 77.3378 215.399 79.6372C215.499 80.287 215.299 80.8868 214.849 81.3867C214.699 81.5366 214.499 81.7365 213.848 81.7365Z" fill="#26242B"/>
<path d="M373.24 97.3374C373.246 95.8741 372.467 94.6848 371.5 94.681C370.533 94.6772 369.744 95.8603 369.739 97.3236C369.733 98.7868 370.512 99.9761 371.479 99.98C372.446 99.9838 373.234 98.8007 373.24 97.3374Z" fill="#26242B"/>
<path d="M381.706 98.7862C381.712 97.3228 380.933 96.1334 379.966 96.1296C378.999 96.1258 378.211 97.309 378.205 98.7724C378.199 100.236 378.978 101.425 379.945 101.429C380.912 101.433 381.7 100.25 381.706 98.7862Z" fill="#26242B"/>
<path d="M206.844 133.973C202.092 132.623 160.173 120.526 159.323 113.478C158.722 108.38 170.178 104.831 178.532 102.231C180.933 101.481 183.634 100.632 184.434 100.182C183.734 99.782 181.633 99.0821 179.732 98.4823C172.379 96.1329 161.274 92.5839 161.924 86.5355C162.324 82.9365 168.927 79.8873 181.483 77.438C190.687 75.6385 199.941 74.8387 200.041 74.8387L200.141 75.8384C190.037 76.7382 163.625 80.3871 162.924 86.6355C162.324 91.8341 173.429 95.3831 180.032 97.5326C184.184 98.8822 185.485 99.3321 185.585 100.082C185.685 100.932 184.584 101.382 178.832 103.181C171.728 105.38 159.823 109.129 160.323 113.378C160.523 114.878 163.775 118.477 183.884 125.575C195.439 129.674 206.994 132.973 207.145 133.023L206.844 133.973Z" fill="#D56B38"/>
<path d="M93.2428 101.032L92.7925 100.132C113.302 89.8846 146.017 72.7392 146.967 70.0899C146.617 69.1401 141.014 68.9402 137.263 68.8402C130.41 68.5903 123.957 68.3903 123.907 65.541C123.857 63.4916 131.56 59.5925 150.519 50.4949C159.373 46.2461 168.527 41.8472 175.53 37.9982C185.635 32.4497 186.985 30.3003 186.935 29.5005C186.935 29.3505 186.885 29.1506 186.585 29.0006C183.234 26.8012 163.725 31.8499 156.522 33.9993L156.221 33.0496C158.923 32.2498 182.783 25.3017 187.135 28.2009C187.586 28.5008 187.886 28.9507 187.936 29.4506C188.386 33.1996 173.579 40.5976 150.969 51.4448C139.414 56.9933 125.107 63.8915 124.907 65.5911C124.957 67.4906 132.11 67.7404 137.313 67.8904C143.916 68.1403 147.667 68.3403 147.968 70.0398C148.118 70.8396 148.368 72.2892 120.705 86.9853C107.199 94.0835 93.3929 100.982 93.2428 101.032Z" fill="#D56B38"/>
<path d="M144.966 119.926L124.857 112.428C128.659 100.682 134.611 92.7336 139.463 93.7333C144.766 94.883 146.967 106.18 144.966 119.926Z" fill="#D56B38"/>
<path d="M322.698 242.294C271.424 249.942 199.291 306.077 202.843 340.718C206.394 375.359 289.732 433.943 289.732 433.943C289.732 433.943 275.626 453.088 279.128 467.884L342.357 408.8L285.18 353.015L344.958 314.425L397.732 333.17L380.374 453.088L454.408 485.679C454.408 485.679 449.406 463.535 435.149 455.137C435.149 455.137 488.824 315.824 469.065 282.833C449.306 249.842 372.921 234.846 322.698 242.294Z" fill="#26242B"/>
<path d="M268.148 334.078L267.098 335.15L318.944 385.907L319.994 384.836L268.148 334.078Z" fill="white"/>
<path d="M397.76 320.72L394.931 339.907L396.415 340.125L399.245 320.939L397.76 320.72Z" fill="white"/>
</svg>
