<svg width="748" height="636" viewBox="0 0 748 636" fill="none" xmlns="http://www.w3.org/2000/svg">
<path d="M498.435 163.376C498.435 210.343 460.31 248.44 413.309 248.44C366.307 248.44 328.183 210.343 328.183 163.376C328.183 116.408 366.307 78.3116 413.309 78.3116C437.691 78.3116 459.702 88.58 475.268 105.046C482.443 112.641 488.219 121.512 492.232 131.355C496.185 141.198 498.435 152.014 498.435 163.376Z" fill="#D7E1F2"/>
<path d="M492.172 131.355C472.715 138.768 455.689 139.436 452.466 132.388C449.426 125.826 459.216 114.646 475.268 105.046C482.383 112.58 488.159 121.512 492.172 131.355Z" fill="white"/>
<path d="M376.588 138.397C380.088 135.26 379.997 129.457 376.387 125.436C372.776 121.415 367.012 120.699 363.513 123.836C360.014 126.973 360.104 132.776 363.714 136.797C367.325 140.818 373.089 141.535 376.588 138.397Z" fill="white"/>
<path d="M472.593 224.987C451.554 224.622 425.044 221.584 418.173 209.371C415.072 203.842 414.464 198.192 416.288 192.541C420.787 179.052 437.995 169.634 443.65 166.839C436.353 165.563 410.754 160.338 402.242 148.611C397.073 141.502 399.749 129.472 410.207 112.823C418.477 99.6991 429.482 87.1825 435.259 80.8635L436.171 81.7141C430.394 87.9724 419.449 100.428 411.241 113.492C401.026 129.654 398.35 141.198 403.215 147.882C407.106 153.229 415.68 158.09 428.023 161.796C437.387 164.652 445.717 165.867 445.778 165.867C446.021 165.928 446.264 166.11 446.264 166.414C446.325 166.657 446.143 166.961 445.899 167.022C445.839 167.022 439.941 169.695 433.556 174.191C427.658 178.323 420.058 184.885 417.443 192.905C415.68 198.191 416.288 203.538 419.206 208.764C425.773 220.491 451.859 223.346 472.593 223.711V224.987Z" fill="white"/>
<path d="M352.868 223.65L352.382 222.556C386.553 208.278 392.33 197.645 391.114 191.265C389.898 184.763 380.047 172.368 328 162.039L328.243 160.824C350.862 165.32 389.29 175.163 392.269 190.961C394.64 203.356 372.204 215.569 352.868 223.65Z" fill="white"/>
<path d="M494.117 190.171C480.68 186.282 474.295 182.09 475.086 177.533C475.694 173.948 480.254 167.811 498.13 159.305L498.677 160.398C490.773 164.166 477.396 171.396 476.302 177.776C475.633 181.543 481.957 185.432 494.482 189.017L494.117 190.171Z" fill="white"/>
<path d="M295.646 109.566C286.161 109.566 275.52 107.683 264.575 102.093L265.427 100.452C284.884 110.356 303.551 108.351 315.772 104.888C327.812 101.485 336.081 96.1383 337.601 95.1054L346.357 67.7633C343.317 69.1608 336.02 72.1987 318.995 78.0317C289.323 88.1787 264.758 72.6849 264.515 72.5026L265.487 70.9836C265.731 71.1659 289.566 86.1735 318.387 76.3304C343.803 67.6417 347.208 65.3329 347.33 65.2114L349.58 63.6316L348.789 66.1835L339.182 96.1991L338.939 96.3812C338.574 96.6243 329.879 102.761 316.32 106.589C310.543 108.23 303.49 109.566 295.646 109.566Z" fill="#26242B"/>
<path d="M213.985 216.261L284.335 273.862L285.551 386.815L373.96 355.402C373.96 355.402 361.921 345.255 336.262 352.425C336.262 352.425 353.287 258.49 344.288 240.565C335.289 222.641 243.232 126.579 201.338 143.774C157.133 161.942 160.903 294.52 160.903 294.52L78.3317 360.384L89.1546 410.086L124.299 445.327C124.299 445.327 122.05 420.415 113.051 402.916C113.051 402.916 205.108 362.936 218.546 326.298C232.044 289.66 246.819 185.638 246.819 185.638" fill="#26242B"/>
<path d="M191.732 90.1233L218.486 128.888C225.661 139.278 241.471 137.638 246.396 126.032L262.692 87.2674C267.131 76.7559 259.408 65.09 247.977 65.09H204.866C191.975 65.0292 184.374 79.4902 191.732 90.1233Z" fill="#2767AE"/>
<path d="M266.643 123.177L294.369 94.6802L331.46 86.599L341.189 44.1276L385.819 138.974L375.482 180.23L336.203 185.091L304.706 211.643L266.643 123.177Z" fill="#D56B38"/>
<path d="M375.483 180.23L336.203 185.091L294.369 94.6801L331.46 86.599L375.483 180.23Z" fill="#26242B"/>
<path d="M170.524 499.944L75.0066 455.629L12.8134 589.49L108.331 633.805L170.524 499.944Z" fill="#D7E1F2"/>
<path d="M695.475 342.637L638.379 312.884L563.703 455.979L620.799 485.732L695.475 342.637Z" fill="#F5DB12"/>
<path d="M373.96 546.615H325.623V634.29H373.96V546.615Z" fill="#2767AE"/>
<path d="M285.553 390.643C250.225 413.55 286.465 440.831 272.48 459.241C258.495 477.53 245.544 501.956 266.521 521.278C287.499 540.599 323.859 548.073 349.823 546.432C403.087 543.151 448.386 505.541 454.71 464.284C461.094 423.028 439.387 389.853 386.974 377.762C334.561 365.731 309.145 375.331 285.553 390.643Z" fill="#F5DB12"/>
<path d="M619.915 111.389C630.728 111.389 639.493 102.63 639.493 91.8242C639.493 81.0189 630.728 72.2595 619.915 72.2595C609.101 72.2595 600.336 81.0189 600.336 91.8242C600.336 102.63 609.101 111.389 619.915 111.389Z" fill="white"/>
<path d="M211.007 68.431L224.688 37.0183C224.688 37.0183 215.263 25.5348 221.222 17.7576C227.181 9.98035 234.417 17.7576 234.417 17.7576C234.417 17.7576 243.841 7.67155 257.157 12.35C270.474 17.0285 271.021 34.8917 265.609 44.7348C257.644 59.2563 247.125 63.145 233.444 53.1196L225.296 70.4969" fill="#F5DB12"/>
<path d="M228.64 14.4766C228.64 14.4766 230.646 -0.834933 250.408 0.380255C270.169 1.59544 271.385 9.06885 279.411 7.36759C287.437 5.66632 288.41 29.6056 266.886 27.1752C245.361 24.7448 246.395 23.6511 246.395 23.6511C246.395 23.6511 243.78 33.008 238.551 31.0637C233.322 29.1194 233.991 18.9119 233.991 18.9119" fill="#26242B"/>
<path d="M365.875 107.44C365.814 107.44 365.814 107.44 365.754 107.44C365.45 107.44 364.963 107.318 364.537 106.771C363.321 105.313 363.321 100.391 363.686 95.5306C362.287 99.6623 360.585 103.612 359.065 104.523C358.518 104.888 358.031 104.827 357.727 104.766C356.45 104.462 355.234 103.004 357.058 89.8799C354.505 96.9888 352.802 99.6015 351.039 99.1762C350.066 98.9332 348.485 98.5078 348.728 81.7988C348.85 73.9 349.397 65.9405 349.397 65.8798L351.221 66.0012C350.309 79.9153 350.187 95.1052 351.525 97.2926C353.228 96.1382 356.876 85.6875 359.369 76.3304L361.132 76.7559C358.943 87.9965 357.241 100.938 358.274 102.943C359.673 102.032 362.713 93.8901 364.963 84.7153L366.726 85.0799C365.084 96.0167 365.024 104.28 365.875 105.556C366.179 105.252 366.848 104.219 367.517 101.485C369.219 94.4977 369.584 82.285 366.301 78.214C361.376 72.0165 355.295 67.2165 355.234 67.1558L356.389 65.6974C356.633 65.8797 362.713 70.6799 367.76 77.0597C370.557 80.523 370.74 87.6926 370.618 91.7027C370.436 97.4749 369.402 103.065 368.003 105.738C367.395 106.832 366.665 107.44 365.875 107.44Z" fill="#26242B"/>
<path d="M273.939 166.195C258.616 166.195 221.404 157.384 208.271 145.719C201.886 140.007 196.049 129.009 191.063 113.03C187.354 101.181 185.469 90.7915 185.469 90.7307L187.293 90.4269C187.354 90.8523 194.772 131.318 209.487 144.382C224.566 157.749 270.777 166.498 278.499 163.946C282.086 162.731 286.099 160.544 289.504 157.992C292.605 155.622 293.882 153.86 294.125 153.192C292.18 152.949 283.849 155.379 276.735 157.992L276.006 156.291C276.067 156.291 281.296 153.739 286.343 150.761C296.01 145.172 295.828 143.47 295.828 143.47C295.767 143.349 295.706 143.227 295.402 143.106C292.423 141.951 280.931 146.63 274.364 149.911L273.513 148.331C281.478 143.653 289.991 137.577 290.052 135.997C290.052 135.997 289.991 135.936 289.808 135.815C287.437 134.721 277.648 137.88 272.054 140.128L271.75 140.25L233.747 126.214L227.545 105.374L229.308 104.827L235.267 124.817L271.75 138.306C274.364 137.273 286.951 132.473 290.66 134.174C291.389 134.539 291.754 135.085 291.876 135.45C292.301 136.665 291.632 138.549 284.214 143.653C288.896 141.891 293.882 140.493 296.193 141.404C297.105 141.769 297.47 142.377 297.652 142.802C298.199 144.26 297.409 146.448 287.559 152.159C287.194 152.402 286.829 152.584 286.403 152.827C294.49 150.519 295.524 151.248 295.889 152.28C296.071 152.767 296.01 153.374 295.645 154.103C294.065 157.324 286.343 163.217 279.046 165.648C277.891 166.012 276.128 166.195 273.939 166.195Z" fill="#26242B"/>
<path d="M259.44 41.3706L258.965 49.743L260.785 49.8463L261.26 41.4738L259.44 41.3706Z" fill="#26242B"/>
<path d="M255.576 40.1781C256.852 40.1781 257.887 39.1445 257.887 37.8694C257.887 36.5942 256.852 35.5605 255.576 35.5605C254.3 35.5605 253.266 36.5942 253.266 37.8694C253.266 39.1445 254.3 40.1781 255.576 40.1781Z" fill="#26242B"/>
<path d="M265.001 43.1553C266.277 43.1553 267.311 42.1217 267.311 40.8467C267.311 39.5718 266.277 38.5381 265.001 38.5381C263.725 38.5381 262.69 39.5718 262.69 40.8467C262.69 42.1217 263.725 43.1553 265.001 43.1553Z" fill="#26242B"/>
<path d="M747.665 612.296C747.665 619.77 746.996 627.122 745.78 634.291H675.734C678.409 627.486 679.929 620.073 679.929 612.296C679.929 579.486 653.297 552.873 620.402 552.873C587.507 552.873 560.935 579.486 560.935 612.296C560.935 620.073 562.395 627.486 565.131 634.291H495.875C494.598 627.122 493.99 619.83 493.99 612.296C493.99 542.3 550.781 485.55 620.828 485.55C690.874 485.55 747.665 542.3 747.665 612.296Z" fill="#D7E1F2"/>
<path d="M324.621 499.689C326.628 494.672 321.252 487.808 312.614 484.358C303.976 480.907 295.347 482.177 293.34 487.194C291.333 492.211 296.709 499.075 305.347 502.526C313.984 505.976 322.614 504.706 324.621 499.689Z" fill="#D56B38"/>
<path d="M318.083 552.326L316.928 552.022C317.293 550.564 326.292 515.687 337.601 512.285C341.554 511.13 345.992 515.87 350.674 520.852C354.626 525.105 358.7 529.48 361.801 529.055C363.808 528.812 364.294 515.93 364.781 504.629C365.814 479.049 367.274 443.99 381.988 438.644C404.729 430.441 448.082 507.059 449.967 510.34L448.934 510.948C448.812 510.766 437.624 490.897 423.822 472.244C405.702 447.818 391.413 436.578 382.475 439.798C368.49 444.841 367.031 480.872 366.058 504.69C365.389 521.703 364.902 529.905 361.984 530.27C358.335 530.756 354.201 526.32 349.823 521.642C345.567 517.085 341.25 512.406 337.966 513.378C333.588 514.654 328.785 521.763 324.042 533.915C320.394 543.272 318.083 552.265 318.083 552.326Z" fill="#D56B38"/>
<path d="M326.474 461.064C320.394 461.064 309.57 451.282 294.187 431.96C281.114 415.494 269.318 397.813 269.196 397.691L270.23 397.023C283.181 416.466 318.874 465.682 328.359 459.363C341.797 450.431 323.434 404.739 323.251 404.314L321.975 401.215L324.224 403.646C324.285 403.707 329.332 409.175 335.412 414.097C343.317 420.537 349.336 423.271 352.802 421.935C362.896 418.107 353.593 359.169 349.215 336.809L350.431 336.566C350.492 336.749 354.444 357.103 356.815 377.701C360.038 405.712 358.822 420.962 353.228 423.089C345.628 425.945 330.913 412.152 325.44 406.623C329.332 416.952 341.371 452.132 328.967 460.335C328.238 460.821 327.447 461.064 326.474 461.064Z" fill="#D56B38"/>
<path d="M255.941 525.834L254.968 525.105C268.102 508.335 269.439 489.56 268.284 476.862C267.007 463.008 262.568 452.983 262.508 452.922L263.602 452.436C263.663 452.558 268.162 462.704 269.439 476.74C270.716 489.621 269.379 508.7 255.941 525.834Z" fill="#D56B38"/>
<path d="M446.805 432.264C430.936 432.264 409.168 428.314 394.453 409.904C382.049 394.349 388.069 368.282 388.129 367.978L389.285 368.282C389.224 368.525 383.387 394.045 395.426 409.114C409.958 427.403 431.665 431.109 447.413 431.049C464.439 430.927 478.241 426.431 478.363 426.37L478.728 427.524C478.606 427.585 464.682 432.142 447.413 432.264C447.231 432.264 447.049 432.264 446.805 432.264Z" fill="#D56B38"/>
<path d="M244.141 204.428L236.668 257.006L238.475 257.262L245.948 204.684L244.141 204.428Z" fill="white"/>
<path d="M264.332 165.405C216.722 157.931 205.899 143.41 205.412 142.802L206.871 141.769L206.142 142.316L206.871 141.769C206.993 141.891 217.877 156.352 264.576 163.643L264.332 165.405Z" fill="white"/>
</svg>
