<svg width="357" height="58" viewBox="0 0 357 58" fill="none" xmlns="http://www.w3.org/2000/svg">
<path d="M15.5554 30.1136V36.8739H25.4232C24.9777 38.4868 24.0869 39.7908 22.7164 40.7516C21.3459 41.7125 19.6327 42.1929 17.5084 42.1929C16.4805 42.1929 15.4184 41.987 14.3562 41.6095C13.294 41.232 12.3004 40.6144 11.4438 39.8251C10.553 39.0358 9.86775 38.0063 9.28528 36.7366C8.73707 35.5013 8.46296 33.9914 8.46296 32.2756C8.46296 30.6284 8.73707 29.2214 9.28528 28.0204C9.83348 26.8193 10.553 25.8241 11.4096 25.0349C12.2662 24.2456 13.2255 23.6622 14.3219 23.2848C15.3841 22.9073 16.4462 22.7014 17.4741 22.7014C19.2558 22.7014 20.7634 23.1132 21.9626 23.9711C23.1618 24.829 24.0869 25.8241 24.7379 26.9909H34.1945C33.7491 25.378 32.9953 23.8681 31.9674 22.4612C30.9395 21.0542 29.6718 19.8188 28.2327 18.755C26.7594 17.6912 25.149 16.8677 23.3331 16.2157C21.5172 15.598 19.6327 15.2891 17.6797 15.2891C15.247 15.2891 12.9514 15.7009 10.7928 16.5588C8.63428 17.4167 6.78408 18.5835 5.17371 20.0934C3.56335 21.5346 2.29562 23.3534 1.37052 25.4124C0.445419 27.5056 0 29.8048 0 32.2756C0 34.6777 0.445419 36.9082 1.33626 39.0015C2.2271 41.0948 3.46056 42.9478 5.03666 44.5264C6.61276 46.1049 8.46296 47.3403 10.5873 48.2668C12.7458 49.159 15.0415 49.6395 17.5427 49.6395C19.8383 49.6395 22.0311 49.2277 24.1897 48.4384C26.314 47.6491 28.1985 46.4481 29.8088 44.9382C31.4192 43.3939 32.7212 41.5409 33.7148 39.3447C34.7084 37.1484 35.1881 34.6777 35.1881 31.8981C35.1881 31.5549 35.1881 31.2804 35.1881 31.0059C35.1881 30.7313 35.1881 30.4568 35.1538 30.148H15.5554V30.1136Z" fill="#D7E1F2"/>
<path d="M102.72 27.8488C101.761 26.5105 100.493 25.4124 98.9858 24.5545C97.444 23.6966 95.5938 23.2505 93.3667 23.2505C91.4479 23.2505 89.8718 23.5936 88.6384 24.3143C87.4049 25.0349 86.377 25.8585 85.6575 26.8193H85.5547H85.5204V24.0741H78.5651V43.291C78.7364 43.3253 78.942 43.3939 79.1133 43.3939H79.1818H81.4774V46.0019V50.0169C81.2376 50.0169 80.0384 50.0855 78.5651 50.0512V57.1203H85.9659V46.7226C86.1714 46.9628 86.4798 47.2373 86.8567 47.5805C87.2336 47.9236 87.7475 48.2668 88.3643 48.5756C88.981 48.9188 89.7005 49.1933 90.5228 49.4335C91.3452 49.6737 92.3045 49.7767 93.4352 49.7767C95.1826 49.7767 96.793 49.4335 98.2663 48.7472C99.7396 48.0609 101.007 47.1344 102.069 45.9676C103.132 44.8009 103.988 43.3939 104.571 41.8154C105.153 40.2369 105.461 38.5554 105.461 36.771C105.461 35.3297 105.256 33.8198 104.81 32.2413C104.399 30.6627 103.68 29.1871 102.72 27.8488ZM97.6153 38.8642C97.3412 39.6192 96.93 40.3055 96.3818 40.8889C95.8336 41.4722 95.1826 41.9527 94.4288 42.3301C93.675 42.6733 92.7842 42.8792 91.8248 42.8792C90.8312 42.8792 89.9746 42.7076 89.2208 42.3301C88.4671 41.987 87.8161 41.5066 87.2679 40.8889C86.7196 40.3055 86.3085 39.6192 86.0344 38.8642C85.7603 38.1093 85.6232 37.32 85.6232 36.5651C85.6232 35.8101 85.7603 35.0895 86.0344 34.3345C86.3085 33.5796 86.6854 32.8933 87.2336 32.3099C87.7475 31.6922 88.3985 31.2118 89.1866 30.8C89.9746 30.4225 90.8655 30.2166 91.8591 30.2166C92.887 30.2166 93.7778 30.4225 94.5316 30.8C95.3197 31.1775 95.9364 31.6922 96.4846 32.3099C96.9985 32.9276 97.4097 33.6139 97.6838 34.3345C97.9579 35.0895 98.0949 35.8101 98.0949 36.5651C98.0607 37.3543 97.9236 38.1093 97.6153 38.8642Z" fill="#D7E1F2"/>
<path d="M113.685 35.1924C113.685 34.8836 113.719 34.4718 113.753 33.9227C113.787 33.3737 113.959 32.8246 114.199 32.2755C114.438 31.7265 114.85 31.2804 115.432 30.8686C115.98 30.4568 116.803 30.2509 117.83 30.2509C118.824 30.2509 119.578 30.4568 120.126 30.9029C120.674 31.349 121.085 31.8294 121.325 32.4128C121.565 32.9962 121.702 33.5452 121.736 34.1286C121.771 34.712 121.805 35.1581 121.805 35.4326V48.9531H129.171C129.171 48.9531 129.206 32.9962 129.137 32.1726C129.103 31.3147 129 30.5254 128.829 29.8391C128.658 29.1185 128.418 28.4665 128.144 27.8831C127.835 27.2997 127.424 26.6821 126.91 26.0644C126.533 25.584 126.054 25.1722 125.54 24.829C124.991 24.4858 124.443 24.2113 123.861 23.9711C123.278 23.7309 122.662 23.5936 122.045 23.4907C121.428 23.3877 120.811 23.3191 120.229 23.3191C118.893 23.3191 117.659 23.5593 116.494 24.0397C115.363 24.5202 114.473 25.3094 113.822 26.4418H113.719V15.8726H106.318V48.9531H113.719V35.1924H113.685Z" fill="#D7E1F2"/>
<path d="M43.7196 48.9531V35.2952C43.7196 34.3687 43.8567 33.6138 44.1308 33.0304C44.4049 32.447 44.816 31.9666 45.33 31.6577C45.8439 31.3146 46.4606 31.1087 47.1802 30.9714H47.2487H49.5443V28.3634V24.3141C49.1332 24.3141 45.9467 24.0739 43.2057 24.6229C41.3897 25.0004 39.9849 25.927 38.8543 26.9564C36.7642 28.8781 36.3531 31.6234 36.2845 33.3049C36.2845 33.3049 36.2845 34.9521 36.2845 35.8443C36.2845 39.5505 36.2845 48.9531 36.2845 48.9531H43.7196Z" fill="#D7E1F2"/>
<path d="M77.2288 42.8105C76.7149 42.4674 76.3037 42.0213 76.0296 41.4379C75.824 41.0261 75.7212 40.5457 75.6527 39.9966V24.1426H68.6973V26.8879H68.5603C67.8065 25.927 66.8129 25.1035 65.5794 24.3828C64.3459 23.6622 62.7356 23.319 60.8511 23.319C58.6583 23.319 56.7738 23.7651 55.232 24.623C53.6902 25.4809 52.4567 26.579 51.4973 27.9174C50.538 29.2557 49.8184 30.697 49.4073 32.3098C48.9619 33.9227 48.7563 35.4326 48.7563 36.8395C48.7563 38.624 49.0647 40.3055 49.6471 41.884C50.2296 43.4625 51.0862 44.8352 52.1483 46.0362C53.2105 47.203 54.4782 48.1295 55.9515 48.8158C57.4248 49.5021 59.0352 49.8453 60.7826 49.8453C61.9133 49.8453 62.8726 49.7424 63.6949 49.5021C64.5172 49.2619 65.2368 48.9874 65.8535 48.6442C66.4702 48.3011 66.9499 47.9922 67.3611 47.6491C67.7037 47.3402 68.9372 46.1735 69.3826 45.7274C69.7252 46.3794 70.1706 46.9971 70.7874 47.5118C71.918 48.5413 73.3228 49.4678 75.1388 49.8453C76.2694 50.0855 77.5029 50.1885 78.5651 50.2228V43.3939C78.0511 43.2223 77.6057 43.0507 77.2288 42.8105ZM68.1491 38.8642C67.875 39.6191 67.4639 40.3055 66.9157 40.8888C66.3674 41.4722 65.7165 41.9526 64.9627 42.3301C64.2089 42.6733 63.318 42.8792 62.3587 42.8792C61.3651 42.8792 60.5085 42.7076 59.7547 42.3301C59.0009 41.9869 58.3499 41.5065 57.8017 40.8888C57.2535 40.3055 56.8423 39.6191 56.5682 38.8642C56.2941 38.1092 56.1571 37.32 56.1571 36.565C56.1571 35.8101 56.2941 35.0894 56.5682 34.3345C56.8423 33.5795 57.2192 32.8932 57.7674 32.3098C58.2814 31.6921 58.9324 31.2117 59.7204 30.7999C60.5085 30.4224 61.3993 30.2165 62.3929 30.2165C63.3866 30.2165 64.3117 30.4224 65.0655 30.7999C65.8535 31.1774 66.5045 31.6921 67.0184 32.3098C67.5324 32.9275 67.9435 33.6138 68.2176 34.3345C68.4918 35.0894 68.6288 35.8101 68.6288 36.565C68.5603 37.3543 68.4232 38.1092 68.1491 38.8642Z" fill="#D7E1F2"/>
<path d="M81.4431 50.1198V46.1049V43.4969H79.1475H79.079C78.8734 43.4626 78.7021 43.4283 78.5308 43.394V50.1541C80.0383 50.2228 81.2033 50.1198 81.4431 50.1198Z" fill="#D7E1F2"/>
<path d="M185.98 47.4774C187.11 48.5069 188.515 49.4335 190.331 49.8109C192.147 50.1884 194.168 50.2227 195.436 50.1884V43.4968H194.374H194.305C193.586 43.3939 192.969 43.1536 192.455 42.8105C191.941 42.4673 191.53 42.0212 191.256 41.4378C191.05 41.0261 190.948 40.5456 190.879 39.9966V24.1426H183.924V26.8879H183.787C183.033 25.927 182.039 25.1035 180.806 24.3828C179.572 23.6622 177.996 23.319 176.078 23.319C173.885 23.319 172 23.7651 170.458 24.623C168.917 25.4809 167.683 26.579 166.724 27.9174C165.764 29.2557 165.045 30.697 164.634 32.3098C164.188 33.9227 163.983 35.4326 163.983 36.8395C163.983 38.6239 164.291 40.3054 164.874 41.884C165.456 43.4625 166.313 44.8351 167.375 46.0362C168.437 47.2029 169.705 48.1295 171.178 48.8158C172.651 49.5021 174.262 49.8452 176.009 49.8452C177.14 49.8452 178.099 49.7423 178.921 49.5021C179.744 49.2619 180.463 48.9874 181.08 48.6442C181.697 48.301 182.176 47.9922 182.588 47.649C182.93 47.3402 184.129 46.1734 184.609 45.7273C184.952 46.3107 185.397 46.9284 185.98 47.4774ZM183.341 38.8641C183.067 39.6191 182.656 40.3054 182.108 40.8888C181.56 41.4722 180.909 41.9526 180.155 42.3301C179.401 42.6732 178.51 42.8791 177.551 42.8791C176.557 42.8791 175.701 42.7075 174.947 42.3301C174.193 41.9869 173.542 41.5065 172.994 40.8888C172.446 40.3054 172.034 39.6191 171.76 38.8641C171.486 38.1092 171.349 37.3199 171.349 36.565C171.349 35.81 171.486 35.0894 171.76 34.3344C172.034 33.5795 172.411 32.8932 172.96 32.3098C173.474 31.6921 174.125 31.2117 174.913 30.7999C175.701 30.4224 176.591 30.2165 177.585 30.2165C178.613 30.2165 179.504 30.4224 180.258 30.7999C181.046 31.1774 181.662 31.6921 182.211 32.3098C182.725 32.9275 183.136 33.6138 183.41 34.3344C183.684 35.0894 183.821 35.81 183.821 36.565C183.787 37.3542 183.65 38.1092 183.341 38.8641Z" fill="#D7E1F2"/>
<path d="M138.217 24.1426H130.816V48.9531H138.217V24.1426Z" fill="#D7E1F2"/>
<path d="M138.217 15.8726H130.816V21.5004H138.217V15.8726Z" fill="#D7E1F2"/>
<path d="M152.333 41.3006L159.905 48.8844H169.088L156.925 36.7366L169.465 24.2114H160.282L147.091 37.3886V46.5509L152.333 41.3006Z" fill="#D7E1F2"/>
<path d="M145.686 47.5805C145.755 47.6491 145.858 47.6834 145.926 47.7521L147.125 46.551V37.3886L145.686 38.8299V47.5805Z" fill="#D7E1F2"/>
<path d="M325.396 43.1537C324.676 43.0164 324.059 42.8105 323.511 42.4674C322.997 42.1242 322.586 41.6781 322.278 41.0604C322.106 40.6829 322.004 40.2368 321.935 39.7564V0.396057H314.466V40.5114V43.1537C314.466 44.1145 314.877 44.9038 315.117 45.3499C315.459 46.0019 315.939 46.6196 316.522 47.1686C317.652 48.1981 319.091 49.1247 320.942 49.5364C322.483 49.8453 324.128 49.9139 325.396 49.9139C325.498 49.9139 325.636 49.9139 325.807 49.9139V43.1537H325.464H325.396ZM355.547 43.4282H355.479C354.759 43.291 354.142 43.0851 353.594 42.7419C353.08 42.3987 352.669 41.9526 352.361 41.3349C352.155 40.9232 352.052 40.4427 351.984 39.8937V23.8338H344.926V26.5791H344.789C344.035 25.6183 343.041 24.7604 341.773 24.0397C340.506 23.3191 338.93 22.9416 336.977 22.9416C334.749 22.9416 332.865 23.3877 331.323 24.2456C329.781 25.1035 328.514 26.2359 327.52 27.5743C326.526 28.9126 325.841 30.3882 325.396 32.001C324.95 33.6139 324.745 35.1581 324.745 36.5993C324.745 38.4181 325.053 40.0996 325.636 41.7124C326.252 43.3253 327.075 44.6979 328.171 45.899C329.267 47.1 330.535 48.0265 332.043 48.7129C333.516 49.3992 335.161 49.7423 336.942 49.7423C338.073 49.7423 339.067 49.6051 339.889 49.3649C340.711 49.1247 341.431 48.8501 342.048 48.507C342.664 48.1638 343.178 47.8206 343.555 47.4775C343.898 47.1686 345.131 46.0019 345.577 45.5215C345.919 46.1735 346.399 46.7912 346.981 47.3402C348.112 48.3697 349.551 49.2962 351.401 49.708C353.252 50.0855 355.307 50.1198 356.575 50.0855V43.3253H355.547V43.4282ZM344.377 38.7269C344.103 39.4819 343.692 40.1682 343.144 40.7859C342.596 41.4036 341.945 41.884 341.191 42.2272C340.437 42.6046 339.546 42.7762 338.553 42.7762C337.559 42.7762 336.668 42.6046 335.914 42.2272C335.161 41.8497 334.475 41.3693 333.961 40.7859C333.413 40.1682 333.002 39.4819 332.728 38.7269C332.454 37.972 332.283 37.1827 332.283 36.3935C332.283 35.6385 332.42 34.8836 332.694 34.1286C332.968 33.3736 333.379 32.6873 333.893 32.0696C334.407 31.452 335.092 30.9372 335.846 30.5597C336.634 30.1823 337.525 29.9764 338.553 29.9764C339.581 29.9764 340.471 30.1823 341.259 30.5597C342.048 30.9372 342.699 31.452 343.212 32.0696C343.726 32.6873 344.138 33.3736 344.412 34.1286C344.686 34.8836 344.823 35.6385 344.823 36.3935C344.823 37.1827 344.651 37.972 344.377 38.7269ZM227.712 36.3591L227.609 36.2562L227.986 15.3235H219.797L206.88 36.3591L199.171 48.8158H206.4L219.797 27.3684V48.7815H227.198L239.944 28.4322L240.047 28.4665L239.807 48.7815H247.996V15.3235H240.629L227.712 36.3591ZM305.694 39.1387C305.626 39.6878 305.523 40.1682 305.318 40.58C305.043 41.1977 304.632 41.6438 304.084 41.9869C303.639 42.2615 303.125 42.4674 302.542 42.6046V32.5158C302.542 31.2804 302.439 30.2166 302.268 29.3244C302.097 28.4322 301.857 27.6772 301.583 27.0252C301.309 26.4075 301 25.8585 300.658 25.4467C300.315 25.0349 299.973 24.6917 299.63 24.3829C298.945 23.7652 297.985 23.2505 296.82 22.8387C295.621 22.4269 293.051 22.0837 290.961 22.0837C288.871 22.0837 286.541 22.4269 285.342 22.8387C284.143 23.2505 283.218 23.7652 282.533 24.3829C282.19 24.6917 281.847 25.0349 281.505 25.4467C281.162 25.8585 280.854 26.3732 280.58 27.0252C280.306 27.6429 280.066 28.4322 279.894 29.3244C279.723 30.2166 279.62 31.2804 279.62 32.5158V42.6046C278.969 42.4674 278.387 42.2615 277.907 41.9526C277.393 41.6095 276.982 41.1634 276.674 40.5457C276.468 40.1339 276.365 39.6535 276.297 39.1044V24.0054H269.239V26.8193C268.485 25.8585 267.491 25.0006 266.223 24.2799C264.956 23.5593 263.345 23.1818 261.427 23.1818C259.2 23.1818 257.315 23.6279 255.739 24.4858C254.197 25.378 252.929 26.4762 251.936 27.8145C250.942 29.1528 250.257 30.6284 249.811 32.2412C249.366 33.8541 249.161 35.3983 249.161 36.8396C249.161 38.6583 249.469 40.3398 250.051 41.9526C250.668 43.5655 251.49 44.9381 252.587 46.1392C253.683 47.3402 254.951 48.2668 256.459 48.9531C257.863 49.6051 259.371 49.9482 261.016 49.9826C261.05 49.9826 261.084 49.9826 261.118 49.9826C261.221 49.9826 261.29 49.9826 261.392 49.9826C262.523 49.9826 263.517 49.8453 264.339 49.6051C265.059 49.3992 265.675 49.159 266.223 48.8844C267.731 48.2324 269.239 47.1343 270.301 45.4185C270.609 45.8646 270.918 46.2764 271.363 46.6539C272.494 47.6834 273.933 48.6099 275.783 49.0217C277.085 49.2962 278.49 49.3992 279.655 49.3992H279.689C280.031 49.3992 280.306 49.3992 280.614 49.3992H287.124V34.5404C287.124 34.0943 287.158 33.5795 287.192 32.9619C287.227 32.3785 287.364 31.7951 287.638 31.2461C287.878 30.697 288.255 30.2509 288.803 29.8734C289.317 29.496 290.105 29.3244 291.098 29.3244C292.092 29.3244 292.846 29.496 293.394 29.8734C293.908 30.2509 294.319 30.697 294.559 31.2461C294.799 31.7951 294.936 32.3442 295.004 32.9619C295.039 33.5452 295.073 34.06 295.073 34.5404V49.4678H301.48C301.754 49.4678 302.063 49.4678 302.405 49.4678H302.611C303.741 49.4335 305.078 49.3649 306.311 49.0903C308.161 48.7129 309.6 47.7863 310.731 46.7225C311.348 46.1735 311.793 45.5558 312.136 44.9038C312.341 44.4577 312.821 43.6684 312.821 42.7076V24.0397H305.763V39.1387H305.694ZM268.827 38.9671C268.553 39.7221 268.142 40.4084 267.594 41.0261C267.046 41.6438 266.395 42.1242 265.641 42.4674C264.887 42.8448 263.996 43.0164 263.003 43.0164C262.009 43.0164 261.118 42.8448 260.365 42.4674C259.611 42.0899 258.925 41.6095 258.412 41.0261C257.863 40.4084 257.452 39.7221 257.178 38.9671C256.904 38.2122 256.733 37.4229 256.733 36.6337C256.733 35.8787 256.87 35.1238 257.144 34.3688C257.418 33.6139 257.829 32.9275 258.343 32.3099C258.857 31.6922 259.542 31.1774 260.296 30.8C261.084 30.4225 261.975 30.2166 263.003 30.2166C264.031 30.2166 264.921 30.4225 265.71 30.8C266.498 31.1774 267.149 31.6922 267.663 32.3099C268.176 32.9275 268.588 33.6139 268.862 34.3688C269.136 35.1238 269.273 35.8787 269.273 36.6337C269.239 37.4229 269.102 38.2122 268.827 38.9671ZM305.694 21.4317H312.753V15.7353H305.694V21.4317Z" fill="#D7E1F2"/>
<path d="M147.091 37.3886V0.396057H139.724V48.9531H147.091V46.5509L145.892 47.752C145.823 47.6834 145.721 47.6491 145.652 47.5804V38.8299L147.091 37.3886Z" fill="#D7E1F2"/>
</svg>
