<svg width="437" height="171" viewBox="0 0 437 171" fill="none" xmlns="http://www.w3.org/2000/svg">
<path d="M304.633 162.688L191.121 49.2528C180.083 38.2222 180.083 20.2834 191.121 9.25287C202.159 -1.77765 220.11 -1.77765 231.148 9.25287L344.66 122.688C355.698 133.718 355.698 151.657 344.66 162.688C333.622 173.718 315.709 173.718 304.633 162.688Z" fill="#D56B38"/>
<path d="M211.173 169.749C203.954 169.749 197.118 166.924 192.038 161.81C181.496 151.237 181.496 134.1 192.038 123.527L230.346 85.2449L230.232 85.2067C240.506 74.3288 246.541 60.97 247.266 47.3822C247.763 38.2601 245.853 29.4052 241.728 21.4662L260.138 39.8632C262.276 41.8098 265.026 42.9167 267.929 42.9167C270.603 42.9167 273.123 42.0006 275.148 40.3594L275.186 40.3976L276.026 39.596L305.512 10.1303C310.63 5.01576 317.428 2.19141 324.647 2.19141C331.866 2.19141 338.702 5.01576 343.782 10.1303C348.9 15.2448 351.726 22.0387 351.726 29.2524C351.726 36.4662 348.9 43.2601 343.782 48.3746L305.55 86.5808H305.588C295.314 97.4968 289.241 110.855 288.516 124.443C288.019 133.565 289.929 142.459 294.054 150.397L275.797 132.153C273.62 130.092 270.832 128.947 267.853 128.947C264.95 128.947 262.2 130.016 260.061 132.001L230.27 161.772C225.19 166.924 218.392 169.749 211.173 169.749Z" fill="white"/>
<path d="M324.646 3.41311C331.56 3.41311 338.052 6.08479 342.941 10.9703C353.024 21.0466 353.024 37.4587 342.941 47.5351L306.199 84.2527L303.182 87.2679L303.334 87.3061C293.709 98.1076 288.057 111.161 287.331 124.405C286.949 131.505 287.942 138.375 290.31 144.94L276.713 131.352L276.675 131.314H276.637C274.269 129.062 271.137 127.802 267.891 127.802C264.682 127.802 261.627 128.985 259.297 131.161L259.259 131.199L259.221 131.237L229.468 160.97C224.579 165.856 218.086 168.527 211.173 168.527C204.26 168.527 197.767 165.856 192.878 160.97C182.795 150.894 182.795 134.482 192.878 124.405L229.62 87.6878L232.676 84.6343L232.485 84.5961C242.072 73.7946 247.724 60.7793 248.45 47.5351C248.832 40.474 247.839 33.5657 245.471 27.039L259.182 40.7412L259.221 40.7795L259.259 40.8177C261.627 42.9932 264.682 44.1764 267.891 44.1764C270.488 44.1764 272.97 43.4131 275.033 41.9627L275.224 42.1153L276.866 40.474L306.352 11.0085C311.24 6.08483 317.733 3.41311 324.646 3.41311ZM324.646 0.970215C317.39 0.970215 310.171 3.71838 304.633 9.25273L275.147 38.7184C273.161 40.7032 270.526 41.6954 267.929 41.6954C265.446 41.6954 262.925 40.7794 260.977 38.9855L231.225 9.25273C252.957 30.9703 250.207 63.642 227.864 85.932H227.94L191.198 122.65C180.16 133.68 180.16 151.619 191.198 162.65C196.736 168.184 203.954 170.932 211.211 170.932C218.468 170.932 225.687 168.184 231.225 162.65L260.977 132.917C262.925 131.123 265.446 130.207 267.929 130.207C270.488 130.207 273.009 131.161 274.995 133.031L304.633 162.611C282.901 140.894 285.651 108.222 307.994 85.932L344.736 49.2146C355.774 38.1841 355.774 20.245 344.736 9.21452C339.16 3.71834 331.903 0.970215 324.646 0.970215Z" fill="#26242B"/>
<path d="M377.163 120.894V51.0083C377.163 44.2144 382.701 38.6802 389.499 38.6802C396.298 38.6802 401.836 44.2144 401.836 51.0083V120.894C401.836 127.688 396.298 133.222 389.499 133.222C382.701 133.222 377.163 127.688 377.163 120.894Z" fill="#F5DB12"/>
<path d="M378.385 102.612C378.309 99.5964 375.902 97.1536 372.923 97.0391H354.552C348.441 97.0391 343.438 92.0772 343.438 85.9322C343.438 82.9551 344.583 80.1688 346.684 78.0696C348.785 75.9704 351.573 74.8253 354.552 74.8253H379.378L379.302 74.7491C385.527 74.3292 391.218 72.0391 395.458 68.2223C397.597 66.314 399.315 64.062 400.576 61.543V69.3674C400.69 72.0391 402.562 74.1765 405.083 74.7109V74.8253H406.266H424.447C430.558 74.8253 435.561 79.7872 435.561 85.9322C435.561 92.0772 430.596 97.0391 424.447 97.0391H399.621L399.659 97.1155C393.433 97.5354 387.781 99.8253 383.503 103.642C381.364 105.55 379.607 107.841 378.347 110.321L378.385 102.612Z" fill="white"/>
<path d="M399.392 65.8181V69.3294V69.3676V69.4058C399.506 72.3066 401.378 74.7111 403.975 75.6271L404.013 76.047H406.343H424.523C429.985 76.047 434.415 80.4744 434.415 85.9325C434.415 91.3905 429.985 95.8179 424.523 95.8179H401.874H397.482L397.635 96.0852C391.944 96.8485 386.75 99.1386 382.739 102.726C381.593 103.757 380.562 104.864 379.645 106.085V102.65V102.612V102.574C379.569 98.9478 376.666 95.9706 373 95.8179H372.962H372.923H354.59C349.129 95.8179 344.698 91.3905 344.698 85.9325C344.698 83.2989 345.729 80.818 347.601 78.9478C349.472 77.0776 351.955 76.047 354.59 76.047H377.239H381.593L381.402 75.7417C387.132 74.9784 392.326 72.6881 396.336 69.1004C397.444 68.1462 398.475 67.0013 399.392 65.8181ZM401.836 51.0088C401.836 64.3676 390.913 73.6043 377.163 73.6043V73.6425H354.514C347.715 73.6425 342.177 79.1768 342.177 85.9707C342.177 92.7646 347.715 98.2988 354.514 98.2988H372.847C375.177 98.3752 377.086 100.284 377.125 102.65V120.894C377.125 107.536 388.048 98.2988 401.798 98.2988H424.447C431.245 98.2988 436.783 92.7646 436.783 85.9707C436.783 79.1768 431.245 73.6425 424.447 73.6425H406.266C403.86 73.6425 401.912 71.734 401.798 69.3676V51.0088H401.836Z" fill="#26242B"/>
<path d="M170.115 29.2527C170.115 13.642 157.434 0.970215 141.813 0.970215C126.192 0.970215 113.511 13.642 113.511 29.2527V83.0312V95.0541C113.511 105.779 104.842 114.444 94.1091 114.444C94.0709 114.444 87.7307 114.444 85.0571 114.444C82.3835 114.444 76.0435 114.444 76.0053 114.444C65.2729 114.444 56.6028 105.779 56.6028 95.0541V83.0312V170.97H113.473H118.209H120.043V170.932C149.796 169.94 170.115 145.321 170.115 114.405V72.3062V29.2527Z" fill="#2767AE"/>
<path d="M51.8669 169.749C37.5443 169.749 24.5586 164.062 15.3157 153.68C6.22562 143.527 1.22211 129.558 1.22211 114.367V29.2524C1.22211 14.3288 13.3678 2.19141 28.3016 2.19141C43.2353 2.19141 55.3808 14.3288 55.3808 29.2524V73.1456L55.4953 73.1838V119.1C55.4953 134.1 61.4918 147.726 72.377 157.459C78.7553 163.146 86.5469 167.306 95.1404 169.749H51.8669Z" fill="white"/>
<path d="M28.3016 3.41311C42.5478 3.41311 54.1586 15.016 54.1586 29.2527V72.268V74.0618L54.2733 74.1V119.1C54.2733 126.924 55.8391 134.367 58.8946 141.161C61.8355 147.688 66.1133 153.489 71.575 158.375C76.311 162.611 81.8109 166.008 87.8455 168.527H51.867C44.7247 168.527 37.9645 167.115 31.8153 164.329C25.8953 161.657 20.6628 157.802 16.2323 152.878C7.33319 142.955 2.44436 129.253 2.44436 114.405V72.3062V29.2527C2.44436 14.9779 14.0553 3.41311 28.3016 3.41311ZM28.3016 0.970215C12.6803 0.970215 0 13.642 0 29.2527V72.3062V114.405C0 145.932 21.1593 170.97 51.9052 170.97H113.397C81.8491 170.97 56.7939 149.825 56.7939 119.1V72.268L56.6794 72.2298V29.2145C56.603 13.6038 43.9228 0.970215 28.3016 0.970215Z" fill="#26242B"/>
</svg>
